<svg version="1.1" id="Layer_1" xmlns="http://www.w3.org/2000/svg" xmlns:xlink="http://www.w3.org/1999/xlink" x="0px" y="0px"
	 width="100%" viewBox="0 0 70 70" enable-background="new 0 0 70 70" xml:space="preserve">
<path fill="#F4F9FD" opacity="1.000000" stroke="none" 
	d="
M48.000156,71.000000 
	C32.000107,71.000000 16.500116,71.000000 1.000093,71.000000 
	C1.000062,47.666721 1.000062,24.333441 1.000031,1.000121 
	C24.333267,1.000081 47.666534,1.000081 70.999847,1.000040 
	C70.999901,24.333254 70.999901,47.666508 70.999954,70.999878 
	C63.500072,71.000000 56.000141,71.000000 48.000156,71.000000 
M6.971024,49.340374 
	C9.171002,53.181515 11.370980,57.022652 13.760714,61.195103 
	C17.461367,58.385311 20.697975,55.837505 24.042160,53.439735 
	C25.151510,52.644333 26.537443,52.234676 27.796925,51.648663 
	C28.209282,53.153225 29.025116,54.676441 28.956587,56.158772 
	C28.768463,60.227844 28.208967,64.279747 27.760626,68.690964 
	C32.863701,68.690964 37.240788,68.690964 42.450649,68.690964 
	C41.681656,61.541523 41.121490,54.809040 40.116146,48.143703 
	C39.887459,46.627502 38.338860,45.071079 37.018982,43.999943 
	C31.101210,39.197407 24.872255,37.969585 18.038197,42.443394 
	C14.509397,44.753464 10.644738,46.550488 6.971024,49.340374 
M51.443672,22.917469 
	C49.032440,24.683935 46.581131,26.398754 44.220455,28.230375 
	C41.474907,30.360615 40.048325,43.232159 42.683640,45.319256 
	C48.450356,49.886330 54.564365,54.014889 60.829773,58.534073 
	C63.481819,53.795139 65.808907,49.636868 68.325699,45.139626 
	C64.034523,43.427769 60.007034,41.942986 56.100212,40.189373 
	C54.906216,39.653435 54.043728,38.378952 53.029423,37.442692 
	C54.014057,36.465034 54.830067,35.117645 56.014267,34.577568 
	C59.899441,32.805664 63.918354,31.326990 68.353424,29.548090 
	C65.703217,24.809805 63.309231,20.529621 60.865658,16.160782 
	C57.697266,18.434958 54.862045,20.469994 51.443672,22.917469 
M16.120544,15.266712 
	C14.964948,15.290644 13.142097,14.857941 12.762357,15.412831 
	C10.350437,18.937214 8.257234,22.679714 5.892735,26.627899 
	C11.288729,28.993326 16.458780,31.149679 21.534285,33.509392 
	C29.995258,37.443089 39.795723,32.188797 40.862755,22.915161 
	C41.530956,17.107761 41.886684,11.264407 42.342960,5.903206 
	C36.870491,5.903206 32.309971,5.903206 27.511335,5.903206 
	C28.103092,10.967833 28.702490,15.401361 29.077190,19.853800 
	C29.158564,20.820755 28.697956,22.352905 28.006907,22.719299 
	C27.314430,23.086456 25.845028,22.575640 25.023718,22.006107 
	C22.166683,20.024914 19.443069,17.851320 16.120544,15.266712 
z"/>
<path fill="#ACB9CC" opacity="1.000000" stroke="none" 
	d="
M6.951427,48.959846 
	C10.644738,46.550488 14.509397,44.753464 18.038197,42.443394 
	C24.872255,37.969585 31.101210,39.197407 37.018982,43.999943 
	C38.338860,45.071079 39.887459,46.627502 40.116146,48.143703 
	C41.121490,54.809040 41.681656,61.541523 42.450649,68.690964 
	C37.240788,68.690964 32.863701,68.690964 27.760626,68.690964 
	C28.208967,64.279747 28.768463,60.227844 28.956587,56.158772 
	C29.025116,54.676441 28.209282,53.153225 27.796925,51.648663 
	C26.537443,52.234676 25.151510,52.644333 24.042160,53.439735 
	C20.697975,55.837505 17.461367,58.385311 13.760714,61.195103 
	C11.370980,57.022652 9.171002,53.181515 6.951427,48.959846 
z"/>
<path fill="#27CDA5" opacity="1.000000" stroke="none" 
	d="
M51.735249,22.711248 
	C54.862045,20.469994 57.697266,18.434958 60.865658,16.160782 
	C63.309231,20.529621 65.703217,24.809805 68.353424,29.548090 
	C63.918354,31.326990 59.899441,32.805664 56.014267,34.577568 
	C54.830067,35.117645 54.014057,36.465034 53.029423,37.442692 
	C54.043728,38.378952 54.906216,39.653435 56.100212,40.189373 
	C60.007034,41.942986 64.034523,43.427769 68.325699,45.139626 
	C65.808907,49.636868 63.481819,53.795139 60.829773,58.534073 
	C54.564365,54.014889 48.450356,49.886330 42.683640,45.319256 
	C40.048325,43.232159 41.474907,30.360615 44.220455,28.230375 
	C46.581131,26.398754 49.032440,24.683935 51.735249,22.711248 
z"/>
<path fill="#426DE5" opacity="1.000000" stroke="none" 
	d="
M16.394632,15.508800 
	C19.443069,17.851320 22.166683,20.024914 25.023718,22.006107 
	C25.845028,22.575640 27.314430,23.086456 28.006907,22.719299 
	C28.697956,22.352905 29.158564,20.820755 29.077190,19.853800 
	C28.702490,15.401361 28.103092,10.967833 27.511335,5.903206 
	C32.309971,5.903206 36.870491,5.903206 42.342960,5.903206 
	C41.886684,11.264407 41.530956,17.107761 40.862755,22.915161 
	C39.795723,32.188797 29.995258,37.443089 21.534285,33.509392 
	C16.458780,31.149679 11.288729,28.993326 5.892735,26.627899 
	C8.257234,22.679714 10.350437,18.937214 12.762357,15.412831 
	C13.142097,14.857941 14.964948,15.290644 16.394632,15.508800 
z"/>
</svg>